<?xml version="1.0" encoding="UTF-8" standalone="no"?>
<svg xmlns="http://www.w3.org/2000/svg" viewBox="0 0 1888 1888">
  <rect width="1888" height="1888" rx="280" fill="#ffffff"/>
  <g transform="translate(124,338.5)">
    <g
     transform="matrix(1.3333333,0,0,1.3333333,0,3.0275e-5)"
     id="g10"><g
       id="g12"><path
         id="path14"
         style="fill:none;fill-opacity:0;fill-rule:evenodd;stroke:none"
         d="m -0.375,-0.375 c 410,0 819.996,0 1230,0 0,302.75 0,605.5 0,908.25 -410.004,0 -820,0 -1230,0 0,-302.75 0,-605.5 0,-908.25 z" /><path
         id="path16"
         style="fill:#51a3d2;fill-opacity:1;fill-rule:evenodd;stroke:none"
         d="m 801.375,37.875 c 1.344,0.605 2.844,0.98 4.5,1.125 9.246,0.43 18.504,0.805 27.75,1.125 2.496,0 5.004,0 7.5,0 17.52,1.719 35.016,4.219 52.5,7.5 52.223,9.285 101.723,26.41 148.5,51.375 40.641,22.887 75.016,53.012 103.125,90.375 15.434,22.129 27.059,46.129 34.875,72 0.352,3.883 1.102,7.633 2.25,11.25 0.074,1.82 -0.426,3.445 -1.5,4.875 1.441,3.309 2.316,2.934 2.625,-1.125 6.156,26.031 8.781,52.531 7.875,79.5 -0.684,9.266 -1.559,18.516 -2.625,27.75 -1.688,7.184 -3.059,14.43 -4.125,21.75 -2.82,10.469 -5.82,20.969 -9,31.5 -6.023,18.035 -13.266,35.535 -21.75,52.5 -12.996,0 -26.004,0 -39,0 0,-1.75 0,-3.5 0,-5.25 9.344,-22.18 15.594,-45.18 18.75,-69 0.609,-1.344 0.984,-2.844 1.125,-4.5 0.629,-7.613 1.004,-15.238 1.125,-22.875 0.129,-8.566 -0.621,-16.941 -2.25,-25.125 -6.238,-39.219 -22.363,-73.719 -48.375,-103.5 -34.059,-36.48 -74.684,-63.105 -121.875,-79.875 -35.266,-12.727 -71.512,-21.102 -108.75,-25.125 -3.367,-0.691 -6.871,-1.191 -10.5,-1.5 -0.832,-0.594 -1.828,-0.969 -3,-1.125 -17.371,-1.059 -34.746,-1.934 -52.125,-2.625 -12.953,0.84 -25.703,0.84 -38.25,0 -0.875,0.383 -1.5,1.008 -1.875,1.875 -1.41,0.148 -2.66,0.523 -3.75,1.125 0,0.25 0,0.5 0,0.75 -48.957,3.367 -96.957,11.992 -144,25.875 -34.945,10.273 -69.195,22.398 -102.75,36.375 -1.73,0.363 -3.355,0.363 -4.875,0 -0.531,1.105 -1.406,1.605 -2.625,1.5 -0.555,-42.496 -0.805,-84.996 -0.75,-127.5 4.723,-1.5 9.473,-3.125 14.25,-4.875 1.082,-0.281 1.832,-0.906 2.25,-1.875 38.324,-12.664 77.324,-22.664 117,-30 9.969,-1.324 19.969,-2.699 30,-4.125 1.215,-0.176 1.965,-0.801 2.25,-1.875 48.246,-7.668 96.742,-10.418 145.5,-8.25 z" /><path
         id="path18"
         style="fill:#70a9ca;fill-opacity:1;fill-rule:evenodd;stroke:none"
         d="m 801.375,37.875 c 10.926,-0.18 21.676,0.57 32.25,2.25 -9.246,-0.32 -18.504,-0.695 -27.75,-1.125 -1.656,-0.145 -3.156,-0.52 -4.5,-1.125 z" /><path
         id="path20"
         style="fill:#e4f8fc;fill-opacity:1;fill-rule:evenodd;stroke:none"
         d="m 841.125,40.125 c 17.453,0.785 34.703,2.91 51.75,6.375 0.422,0.285 0.668,0.66 0.75,1.125 -17.484,-3.281 -34.98,-5.781 -52.5,-7.5 z" /><path
         id="path22"
         style="fill:#68a6c9;fill-opacity:1;fill-rule:evenodd;stroke:none"
         d="m 655.875,46.125 c -0.285,1.074 -1.035,1.699 -2.25,1.875 -10.031,1.426 -20.031,2.801 -30,4.125 10.523,-2.715 21.273,-4.715 32.25,-6 z" /><path
         id="path24"
         style="fill:#609fc5;fill-opacity:1;fill-rule:evenodd;stroke:none"
         d="m 506.625,82.125 c -0.418,0.969 -1.168,1.594 -2.25,1.875 -4.777,1.75 -9.527,3.375 -14.25,4.875 -0.055,42.504 0.195,85.004 0.75,127.5 1.219,0.105 2.094,-0.395 2.625,-1.5 1.52,0.363 3.145,0.363 4.875,0 -2.594,1.418 -5.344,2.668 -8.25,3.75 -1,-43.5 -1,-87 0,-130.5 5.461,-2.152 10.961,-4.152 16.5,-6 z" /><path
         id="path26"
         style="fill:#5da2ca;fill-opacity:1;fill-rule:evenodd;stroke:none"
         d="m 844.125,152.625 c -32.977,-2.664 -65.977,-2.914 -99,-0.75 1.09,-0.602 2.34,-0.977 3.75,-1.125 0.375,-0.867 1,-1.492 1.875,-1.875 12.547,0.84 25.297,0.84 38.25,0 17.379,0.691 34.754,1.566 52.125,2.625 1.172,0.156 2.168,0.531 3,1.125 z" /><path
         id="path28"
         style="fill:#def4fb;fill-opacity:1;fill-rule:evenodd;stroke:none"
         d="m 844.125,152.625 c 3.629,0.309 7.133,0.809 10.5,1.5 -36.465,-2.406 -72.969,-2.906 -109.5,-1.5 0,-0.25 0,-0.5 0,-0.75 33.023,-2.164 66.023,-1.914 99,0.75 z" /><path
         id="path30"
         style="fill:#25739b;fill-opacity:1;fill-rule:evenodd;stroke:none"
         d="m 135.375,486.375 c -2.547,22.594 -2.922,45.344 -1.125,68.25 0.137,2.148 0.512,4.148 1.125,6 5.695,49.133 25.32,91.633 58.875,127.5 24.73,25.742 52.855,46.867 84.375,63.375 27.266,14.258 55.766,25.379 85.5,33.375 8.238,2.934 16.734,5.184 25.5,6.75 21.398,5.176 43.148,8.926 65.25,11.25 35.156,4.559 70.406,5.559 105.75,3 17.555,-0.629 35.055,-1.883 52.5,-3.75 3.535,0.164 7.035,-0.082 10.5,-0.75 1.129,0.766 2.254,1.516 3.375,2.25 3.797,-0.074 7.172,-1.199 10.125,-3.375 2.758,-0.082 5.508,-0.082 8.25,0 2.371,-2.602 5.371,-3.855 9,-3.75 0.418,-0.285 0.668,-0.66 0.75,-1.125 3.957,-0.945 7.957,-1.695 12,-2.25 11.746,-2.063 23.242,-4.816 34.5,-8.25 131.301,-32.813 244.176,-97.063 338.625,-192.75 21.066,-22.672 39.938,-46.922 56.625,-72.75 13.379,-0.246 26.633,0.004 39.75,0.75 -27.66,45.57 -61.164,86.695 -100.5,123.375 -83.762,76.168 -179.266,133.664 -286.5,172.5 -42.281,15.195 -85.281,27.57 -129,37.125 -12.16,1.883 -24.16,4.133 -36,6.75 -10.609,1.426 -21.109,2.926 -31.5,4.5 -20.086,2.055 -40.086,3.801 -60,5.25 -68.594,4.094 -136.094,-2.527 -202.5,-19.875 C 233.941,835.027 182.691,809.781 136.875,774 90.539,736.227 59.793,688.348 44.625,630.375 c -4.398,-19.617 -6.898,-39.367 -7.5,-59.25 -0.426,-47.039 9.449,-91.789 29.625,-134.25 25.203,-51.992 59.578,-97.117 103.125,-135.375 53.77,-46.398 114.27,-81.648 181.5,-105.75 -50.164,29.887 -94.789,66.762 -133.875,110.625 -27.648,32.52 -49.398,68.766 -65.25,108.75 -8.582,23.074 -14.207,46.824 -16.875,71.25 z" /><path
         id="path32"
         style="fill:#68a9d0;fill-opacity:1;fill-rule:evenodd;stroke:none"
         d="m 1180.125,261.375 c 8.25,25.238 12.246,51.234 12,78 0,5.633 -0.246,11.129 -0.75,16.5 0.906,-26.969 -1.719,-53.469 -7.875,-79.5 -0.309,4.059 -1.184,4.434 -2.625,1.125 1.074,-1.43 1.574,-3.055 1.5,-4.875 -1.148,-3.617 -1.898,-7.367 -2.25,-11.25 z" /><path
         id="path34"
         style="fill:#e5f9fd;fill-opacity:1;fill-rule:evenodd;stroke:none"
         d="m 1133.625,362.625 c 1.629,8.184 2.379,16.559 2.25,25.125 -0.121,7.637 -0.496,15.262 -1.125,22.875 -0.141,1.656 -0.516,3.156 -1.125,4.5 0.969,-17.504 0.969,-35.004 0,-52.5 z" /><path
         id="path36"
         style="fill:#bddce8;fill-opacity:1;fill-rule:evenodd;stroke:none"
         d="m 868.125,403.875 c -5.004,0 -9.996,0 -15,0 0,4.5 0,9 0,13.5 -0.742,-4.609 -0.988,-9.359 -0.75,-14.25 5.391,-0.242 10.641,0.008 15.75,0.75 z" /><path
         id="path38"
         style="fill:#287996;fill-opacity:1;fill-rule:evenodd;stroke:none"
         d="m 868.125,403.875 c 0,4.5 0,9 0,13.5 -5.004,0 -9.996,0 -15,0 0,-4.5 0,-9 0,-13.5 5.004,0 9.996,0 15,0 z" /><path
         id="path40"
         style="fill:#36788e;fill-opacity:1;fill-rule:evenodd;stroke:none"
         d="m 283.875,411.375 c 0,5 0,10 0,15 -18,-0.125 -36,0 -54,0.375 -1.051,0.309 -2.051,0.684 -3,1.125 -0.105,-1.219 0.395,-2.094 1.5,-2.625 17.75,-0.25 35.5,-0.5 53.25,-0.75 0.91,-0.836 0.91,-1.711 0,-2.625 -1.5,-0.5 -3,-1 -4.5,-1.5 1.848,-0.469 3.598,-1.094 5.25,-1.875 -0.961,-1.598 -0.961,-3.223 0,-4.875 -0.656,-0.563 -1.406,-0.937 -2.25,-1.125 -17.5,-0.5 -35,-0.5 -52.5,0 1.328,0.402 1.578,1.027 0.75,1.875 -3.191,-1.301 -5.941,-0.676 -8.25,1.875 -0.969,0.367 -1.969,0.492 -3,0.375 2.492,-2.387 5.492,-4.012 9,-4.875 19.25,-0.375 38.5,-0.5 57.75,-0.375 z" /><path
         id="path42"
         style="fill:#287b98;fill-opacity:1;fill-rule:evenodd;stroke:none"
         d="m 386.625,494.625 c -5,0 -10,0 -15,0 0,-6.75 0,-13.5 0,-20.25 -17.75,0 -35.5,0 -53.25,0 -0.746,6.613 -0.996,13.363 -0.75,20.25 -4.75,0 -9.5,0 -14.25,0 0,-16.25 0,-32.5 0,-48.75 3.855,-19.48 15.609,-31.105 35.25,-34.875 14.789,-0.715 29.539,-0.461 44.25,0.75 1.125,1.125 2.25,2.25 3.375,3.375 0.375,26.5 0.5,53 0.375,79.5 z" /><path
         id="path44"
         style="fill:#e3f8fc;fill-opacity:1;fill-rule:evenodd;stroke:none"
         d="m 1184.625,405.375 c -1.828,10.121 -4.207,20.121 -7.125,30 -0.316,0.941 -0.938,1.441 -1.875,1.5 3.18,-10.531 6.18,-21.031 9,-31.5 z" /><path
         id="path46"
         style="fill:#287b98;fill-opacity:1;fill-rule:evenodd;stroke:none"
         d="m 226.875,427.875 c -3.637,2.766 -4.637,6.266 -3,10.5 -0.191,2.996 1.059,5.121 3.75,6.375 13.5,0.25 27,0.5 40.5,0.75 17.516,2.652 25.141,12.777 22.875,30.375 -1.496,7.262 -5.371,12.762 -11.625,16.5 -3.625,1.344 -7.375,2.094 -11.25,2.25 -19.75,0 -39.5,0 -59.25,0 0,-4.75 0,-9.5 0,-14.25 20.621,-0.625 41.371,-1 62.25,-1.125 0.687,-0.207 1.187,-0.582 1.5,-1.125 2.566,-1.824 3.816,-4.324 3.75,-7.5 0.168,-3.793 -1.332,-6.668 -4.5,-8.625 -14.703,-0.973 -29.453,-1.473 -44.25,-1.5 -15.941,-4.723 -22.316,-15.348 -19.125,-31.875 1.367,-5.219 4.242,-9.219 8.625,-12 1.031,0.117 2.031,-0.008 3,-0.375 2.309,-2.551 5.059,-3.176 8.25,-1.875 0.828,-0.848 0.578,-1.473 -0.75,-1.875 17.5,-0.5 35,-0.5 52.5,0 0.844,0.188 1.594,0.562 2.25,1.125 -0.961,1.652 -0.961,3.277 0,4.875 -1.652,0.781 -3.402,1.406 -5.25,1.875 1.5,0.5 3,1 4.5,1.5 0.91,0.914 0.91,1.789 0,2.625 -17.75,0.25 -35.5,0.5 -53.25,0.75 -1.105,0.531 -1.605,1.406 -1.5,2.625 z" /><path
         id="path48"
         style="fill:#488499;fill-opacity:1;fill-rule:evenodd;stroke:none"
         d="m 608.625,410.625 c 0.742,4.859 0.992,9.859 0.75,15 -18,-0.125 -36,0 -54,0.375 -1.309,0.266 -2.559,0.641 -3.75,1.125 -0.066,-0.746 0.187,-1.371 0.75,-1.875 18.75,-0.375 37.5,-0.5 56.25,-0.375 0,-4.75 0,-9.5 0,-14.25 z" /><path
         id="path50"
         style="fill:#effdfe;fill-opacity:1;fill-rule:evenodd;stroke:none"
         d="m 283.875,411.375 c 0.742,5.109 0.992,10.359 0.75,15.75 -18.492,0.539 -36.992,0.914 -55.5,1.125 -1.34,0.59 -2.465,1.465 -3.375,2.625 -1.504,2.25 -2.129,4.75 -1.875,7.5 -1.637,-4.234 -0.637,-7.734 3,-10.5 0.949,-0.441 1.949,-0.816 3,-1.125 18,-0.375 36,-0.5 54,-0.375 0,-5 0,-10 0,-15 z" /><path
         id="path52"
         style="fill:#fefefe;fill-opacity:1;fill-rule:evenodd;stroke:none"
         d="m 319.125,445.125 c 1.609,-8.609 6.609,-14.109 15,-16.5 10.934,-1.512 21.934,-1.887 33,-1.125 1.078,0.164 2.078,0.539 3,1.125 0.734,9.711 0.984,19.461 0.75,29.25 -17,0 -34,0 -51,0 -0.641,-4.215 -0.891,-8.465 -0.75,-12.75 z" /><path
         id="path54"
         style="fill:#277a98;fill-opacity:1;fill-rule:evenodd;stroke:none"
         d="m 943.875,478.125 c 0,5 0,10 0,15 -14.754,0 -29.496,0 -44.25,0 -8.715,-1.086 -14.34,-5.836 -16.875,-14.25 -1.172,-10.719 -1.418,-21.469 -0.75,-32.25 2.379,-8.375 7.746,-13.75 16.125,-16.125 15.246,-0.375 30.496,-0.5 45.75,-0.375 0,5 0,10 0,15 -14.004,-0.125 -28.004,0 -42,0.375 -2.219,0.293 -3.84,1.418 -4.875,3.375 -0.684,9.043 -0.434,18.043 0.75,27 0.676,0.902 1.551,1.527 2.625,1.875 14.496,0.375 28.996,0.5 43.5,0.375 z" /><path
         id="path56"
         style="fill:#287a98;fill-opacity:1;fill-rule:evenodd;stroke:none"
         d="m 395.625,410.625 c 5.691,-0.234 11.316,0.016 16.875,0.75 9.707,19.664 19.582,39.164 29.625,58.5 9.805,-19.359 19.43,-38.859 28.875,-58.5 5.582,-0.984 11.207,-0.984 16.875,0 -13.055,27.984 -26.805,55.609 -41.25,82.875 -4.16,1.988 -7.785,1.359 -10.875,-1.875 -13.77,-27.035 -27.141,-54.285 -40.125,-81.75 z" /><path
         id="path58"
         style="fill:#287b98;fill-opacity:1;fill-rule:evenodd;stroke:none"
         d="m 772.125,487.125 c 0,-18.75 0,-37.5 0,-56.25 5.004,0 9.996,0 15,0 -0.246,15.758 0,31.508 0.75,47.25 5.707,-0.609 10.957,-2.484 15.75,-5.625 8.012,-6.008 14.387,-13.383 19.125,-22.125 3.27,-6.5 6.148,-13.125 8.625,-19.875 5.266,-0.625 10.516,-0.496 15.75,0.375 -5.871,19.895 -16.371,36.77 -31.5,50.625 -11.496,8.832 -24.496,12.832 -39,12 -2.52,-1.426 -4.02,-3.551 -4.5,-6.375 z" /><path
         id="path60"
         style="fill:#277a97;fill-opacity:1;fill-rule:evenodd;stroke:none"
         d="m 761.625,430.875 c 0,5 0,10 0,15 -12.504,-0.125 -25.004,0 -37.5,0.375 -1.23,0.848 -1.98,1.973 -2.25,3.375 -0.746,14.621 -0.996,29.371 -0.75,44.25 -5,0 -10,0 -15,0 -0.227,-16.273 0.023,-32.523 0.75,-48.75 2.441,-7.313 7.437,-11.937 15,-13.875 13.246,-0.375 26.496,-0.5 39.75,-0.375 z" /><path
         id="path62"
         style="fill:#2a7b97;fill-opacity:1;fill-rule:evenodd;stroke:none"
         d="m 1008.375,454.875 c 2.477,-4.059 1.727,-7.434 -2.25,-10.125 -10.5,-0.5 -21,-0.5 -31.5,0 -2.301,0.555 -3.93,1.93 -4.875,4.125 -0.504,8.25 -0.504,16.5 0,24.75 0.516,2.023 1.641,3.648 3.375,4.875 10.246,0.375 20.496,0.5 30.75,0.375 0,4.75 0,9.5 0,14.25 -10.254,0 -20.496,0 -30.75,0 -9.293,-1.414 -15.164,-6.664 -17.625,-15.75 -0.504,-10.25 -0.504,-20.5 0,-30.75 1.738,-8.238 6.613,-13.613 14.625,-16.125 13.531,-0.699 27.031,-0.449 40.5,0.75 10.738,4.598 15.113,12.723 13.125,24.375 -2.145,9.898 -8.273,15.273 -18.375,16.125 -9.75,0.375 -19.5,0.5 -29.25,0.375 0,-5 0,-10 0,-15 10.254,0.125 20.504,0 30.75,-0.375 0.66,-0.531 1.164,-1.156 1.5,-1.875 z" /><path
         id="path64"
         style="fill:#277a97;fill-opacity:1;fill-rule:evenodd;stroke:none"
         d="m 690.375,436.875 c 5.016,6.082 6.641,13.082 4.875,21 -3.262,9.059 -9.637,14.059 -19.125,15 -9.5,0 -19,0 -28.5,0 0,-4.75 0,-9.5 0,-14.25 9.504,0.125 19.004,0 28.5,-0.375 5.168,-2.105 6.543,-5.73 4.125,-10.875 -0.941,-0.535 -1.816,-1.156 -2.625,-1.875 -11.32,-0.727 -22.57,-0.477 -33.75,0.75 -0.965,1.059 -1.84,2.184 -2.625,3.375 -0.688,9.043 -0.438,18.043 0.75,27 1.074,1.453 2.449,2.453 4.125,3 -0.098,0.656 0.152,1.156 0.75,1.5 8.961,-0.734 17.961,-0.984 27,-0.75 0.441,4.352 -0.059,8.477 -1.5,12.375 -9.746,0.375 -19.496,0.5 -29.25,0.375 -8.012,-1.133 -13.137,-5.633 -15.375,-13.5 -1.168,-10.719 -1.418,-21.469 -0.75,-32.25 2.551,-9.051 8.426,-14.426 17.625,-16.125 11.5,-0.5 23,-0.5 34.5,0 4.336,0.812 8.086,2.688 11.25,5.625 z" /><path
         id="path66"
         style="fill:#eefcfd;fill-opacity:1;fill-rule:evenodd;stroke:none"
         d="m 549.375,440.625 c 1.395,-0.027 2.395,0.594 3,1.875 2.988,0.48 5.988,0.855 9,1.125 10.379,-0.465 20.504,-0.965 30.375,-1.5 2.613,1.582 5.484,2.457 8.625,2.625 0.66,0.531 1.16,1.156 1.5,1.875 -2.66,-0.945 -5.41,-1.57 -8.25,-1.875 -13.5,-0.25 -27,-0.5 -40.5,-0.75 -1.621,-0.746 -2.871,-1.871 -3.75,-3.375 z" /><path
         id="path68"
         style="fill:#277a98;fill-opacity:1;fill-rule:evenodd;stroke:none"
         d="m 608.625,410.625 c 0,4.75 0,9.5 0,14.25 -18.75,-0.125 -37.5,0 -56.25,0.375 -0.563,0.504 -0.816,1.129 -0.75,1.875 -3.051,4.039 -3.801,8.539 -2.25,13.5 0.879,1.504 2.129,2.629 3.75,3.375 13.5,0.25 27,0.5 40.5,0.75 2.84,0.305 5.59,0.93 8.25,1.875 14.523,7.906 18.648,19.656 12.375,35.25 -4.34,7.113 -10.715,11.113 -19.125,12 -20.25,0 -40.5,0 -60.75,0 0,-4.75 0,-9.5 0,-14.25 19.629,0.25 39.129,0 58.5,-0.75 4.738,0.137 7.613,-2.113 8.625,-6.75 0.82,-4.859 -0.805,-8.609 -4.875,-11.25 -0.082,-0.461 -0.332,-0.836 -0.75,-1.125 -14.246,-0.375 -28.496,-0.5 -42.75,-0.375 -10.344,-2.219 -16.969,-8.469 -19.875,-18.75 -2.141,-15.094 3.984,-24.969 18.375,-29.625 19,-0.375 37.996,-0.5 57,-0.375 z" /><path
         id="path70"
         style="fill:#e0f4f8;fill-opacity:1;fill-rule:evenodd;stroke:none"
         d="m 1008.375,454.875 c -0.555,-2.055 -0.555,-4.055 0,-6 -0.383,-1.191 -1.133,-2.066 -2.25,-2.625 -11.012,-0.625 -22.004,-0.5 -33,0.375 -0.48,0.859 -1.109,1.609 -1.875,2.25 -0.621,8.512 -0.504,17.012 0.375,25.5 0.57,0.848 1.074,1.723 1.5,2.625 10.453,0.172 20.953,0.297 31.5,0.375 0,5.5 0,11 0,16.5 -10.637,0.246 -21.137,-0.004 -31.5,-0.75 10.254,0 20.496,0 30.75,0 0,-4.75 0,-9.5 0,-14.25 -10.254,0.125 -20.504,0 -30.75,-0.375 -1.734,-1.227 -2.859,-2.852 -3.375,-4.875 -0.504,-8.25 -0.504,-16.5 0,-24.75 0.945,-2.195 2.574,-3.57 4.875,-4.125 10.5,-0.5 21,-0.5 31.5,0 3.977,2.691 4.727,6.066 2.25,10.125 z" /><path
         id="path72"
         style="fill:#ecfbfd;fill-opacity:1;fill-rule:evenodd;stroke:none"
         d="m 761.625,430.875 c 0.309,5.02 1.059,10.02 2.25,15 -0.398,0.52 -0.891,0.895 -1.5,1.125 -1.695,0.176 -3.324,0.551 -4.875,1.125 -9.316,-0.867 -18.691,-0.992 -28.125,-0.375 -0.375,0.375 -0.75,0.75 -1.125,1.125 -0.504,-0.809 -1.254,-1.309 -2.25,-1.5 -1.645,0.273 -3.02,1.023 -4.125,2.25 0.27,-1.402 1.02,-2.527 2.25,-3.375 12.496,-0.375 24.996,-0.5 37.5,-0.375 0,-5 0,-10 0,-15 z" /><path
         id="path74"
         style="fill:#eefdfe;fill-opacity:1;fill-rule:evenodd;stroke:none"
         d="m 371.625,458.625 c -17.75,0 -35.5,0 -53.25,0 0,-3 0,-6 0,-9 -0.223,-1.676 0.027,-3.176 0.75,-4.5 -0.141,4.285 0.109,8.535 0.75,12.75 17,0 34,0 51,0 0.234,-9.789 -0.016,-19.539 -0.75,-29.25 -0.922,-0.586 -1.922,-0.961 -3,-1.125 -11.066,-0.762 -22.066,-0.387 -33,1.125 1.332,-0.824 2.832,-1.449 4.5,-1.875 10.996,-0.375 21.996,-0.5 33,-0.375 0,10.75 0,21.5 0,32.25 z" /><path
         id="path76"
         style="fill:#92c1d1;fill-opacity:1;fill-rule:evenodd;stroke:none"
         d="m 318.375,449.625 c 0,3 0,6 0,9 17.75,0 35.5,0 53.25,0 -17.871,0.75 -35.871,1 -54,0.75 -0.238,-3.398 0.012,-6.648 0.75,-9.75 z" /><path
         id="path78"
         style="fill:#518ca2;fill-opacity:1;fill-rule:evenodd;stroke:none"
         d="m 553.125,459.375 c 14.254,-0.125 28.504,0 42.75,0.375 0.418,0.289 0.668,0.664 0.75,1.125 -14.598,-0.48 -29.098,-0.984 -43.5,-1.5 z" /><path
         id="path80"
         style="fill:#9ec5d0;fill-opacity:1;fill-rule:evenodd;stroke:none"
         d="m 787.125,430.875 c -5.004,0 -9.996,0 -15,0 0,18.75 0,37.5 0,56.25 -0.75,-18.871 -0.996,-37.871 -0.75,-57 5.391,-0.242 10.641,0.008 15.75,0.75 z" /><path
         id="path82"
         style="fill:#e3f5f8;fill-opacity:1;fill-rule:evenodd;stroke:none"
         d="m 690.375,436.875 c 0.813,0.027 1.563,0.281 2.25,0.75 1.477,2.051 2.602,4.301 3.375,6.75 0.676,6.059 0.426,12.059 -0.75,18 -2.613,3.113 -5.238,6.238 -7.875,9.375 -3.723,0.684 -7.473,1.059 -11.25,1.125 9.488,-0.941 15.863,-5.941 19.125,-15 1.766,-7.918 0.141,-14.918 -4.875,-21 z" /><path
         id="path84"
         style="fill:#ddf3fb;fill-opacity:1;fill-rule:evenodd;stroke:none"
         d="m 706.875,445.125 c -0.727,16.227 -0.977,32.477 -0.75,48.75 5,0 10,0 15,0 -4.203,1.316 -8.703,2.066 -13.5,2.25 -1.422,-0.172 -2.422,-0.922 -3,-2.25 0.238,-16.484 0.988,-32.734 2.25,-48.75 z" /><path
         id="path86"
         style="fill:#3c7c91;fill-opacity:1;fill-rule:evenodd;stroke:none"
         d="m 853.125,430.125 c 5.004,0 9.996,0 15,0 0,21.25 0,42.5 0,63.75 -5.004,0 -9.996,0 -15,0 0,-21.25 0,-42.5 0,-63.75 z" /><path
         id="path88"
         style="fill:#247a99;fill-opacity:1;fill-rule:evenodd;stroke:none"
         d="m 853.875,430.875 c 4.004,-0.125 8.012,0 12,0.375 0.375,0.375 0.75,0.75 1.125,1.125 0.375,20 0.504,40 0.375,60 -4.5,0 -9,0 -13.5,0 0,-20.5 0,-41 0,-61.5 z" /><path
         id="path90"
         style="fill:#e9fbfd;fill-opacity:1;fill-rule:evenodd;stroke:none"
         d="m 318.375,474.375 c 17.75,0 35.5,0 53.25,0 0,6.75 0,13.5 0,20.25 5,0 10,0 15,0 -5.141,0.582 -10.391,1.082 -15.75,1.5 0,-7 0,-14 0,-21 -16.52,-0.234 -33.02,0.016 -49.5,0.75 -1.582,0.535 -2.332,1.66 -2.25,3.375 0.453,4.895 0.953,9.77 1.5,14.625 -0.617,0.664 -1.367,0.914 -2.25,0.75 0,-6.75 0,-13.5 0,-20.25 z" /><path
         id="path92"
         style="fill:#eefdfe;fill-opacity:1;fill-rule:evenodd;stroke:none"
         d="m 272.625,478.125 c -0.313,0.543 -0.813,0.918 -1.5,1.125 -20.879,0.125 -41.629,0.5 -62.25,1.125 -0.742,4.859 -0.992,9.859 -0.75,15 20.129,0.25 40.129,0 60,-0.75 3.875,-0.156 7.625,-0.906 11.25,-2.25 -1.215,1.211 -2.715,2.09 -4.5,2.625 -2.906,0.18 -5.656,0.805 -8.25,1.875 -18.238,-0.852 -36.488,-0.977 -54.75,-0.375 -1.383,0.848 -2.883,1.223 -4.5,1.125 0.227,-5.793 -0.023,-11.543 -0.75,-17.25 0.395,-0.52 0.895,-0.895 1.5,-1.125 21.516,-0.148 43.016,-0.523 64.5,-1.125 z" /><path
         id="path94"
         style="fill:#72a2b4;fill-opacity:1;fill-rule:evenodd;stroke:none"
         d="m 592.875,478.875 c -19.371,0.75 -38.871,1 -58.5,0.75 0,4.75 0,9.5 0,14.25 20.25,0 40.5,0 60.75,0 -20.371,0.75 -40.871,1 -61.5,0.75 0,-5.25 0,-10.5 0,-15.75 19.75,0 39.5,0 59.25,0 z" /><path
         id="path96"
         style="fill:#3b7a90;fill-opacity:1;fill-rule:evenodd;stroke:none"
         d="m 646.125,479.625 c 9.75,0 19.5,0 29.25,0 0,4.75 0,9.5 0,14.25 -10.883,0.246 -21.633,-0.004 -32.25,-0.75 9.754,0.125 19.504,0 29.25,-0.375 1.441,-3.898 1.941,-8.023 1.5,-12.375 -9.039,-0.234 -18.039,0.016 -27,0.75 -0.598,-0.344 -0.848,-0.844 -0.75,-1.5 z" /><path
         id="path98"
         style="fill:#83bbd9;fill-opacity:1;fill-rule:evenodd;stroke:none"
         d="m 1114.875,484.125 c 0,1.75 0,3.5 0,5.25 12.996,0 26.004,0 39,0 -13.621,0.746 -27.367,0.996 -41.25,0.75 -0.059,-2.363 0.691,-4.363 2.25,-6 z" /><path
         id="path100"
         style="fill:#8eb6c3;fill-opacity:1;fill-rule:evenodd;stroke:none"
         d="m 943.875,478.125 c 0.742,5.109 0.988,10.359 0.75,15.75 -15.129,0.246 -30.129,-0.004 -45,-0.75 14.754,0 29.496,0 44.25,0 0,-5 0,-10 0,-15 z" /><path
         id="path102"
         style="fill:#7ba7b7;fill-opacity:1;fill-rule:evenodd;stroke:none"
         d="m 208.875,480.375 c 0,4.75 0,9.5 0,14.25 19.75,0 39.5,0 59.25,0 -19.871,0.75 -39.871,1 -60,0.75 -0.242,-5.141 0.008,-10.141 0.75,-15 z" /><path
         id="path104"
         style="fill:#83afc0;fill-opacity:1;fill-rule:evenodd;stroke:none"
         d="m 303.375,445.875 c 0,16.25 0,32.5 0,48.75 4.75,0 9.5,0 14.25,0 -0.246,-6.887 0.004,-13.637 0.75,-20.25 0,6.75 0,13.5 0,20.25 -5.109,0.742 -10.359,0.992 -15.75,0.75 -0.25,-16.629 0.004,-33.129 0.75,-49.5 z" /><path
         id="path106"
         style="fill:#e7f7fa;fill-opacity:1;fill-rule:evenodd;stroke:none"
         d="m 135.375,486.375 c -0.676,12.363 -1.176,24.738 -1.5,37.125 0.285,12.387 0.781,24.762 1.5,37.125 -0.613,-1.852 -0.988,-3.852 -1.125,-6 -1.797,-22.906 -1.422,-45.656 1.125,-68.25 z" /><path
         id="path108"
         style="fill:#76a4bd;fill-opacity:1;fill-rule:evenodd;stroke:none"
         d="m 1096.875,519.375 c 13.379,-0.996 26.879,-0.996 40.5,0 -0.09,0.457 -0.344,0.703 -0.75,0.75 -13.117,-0.746 -26.371,-0.996 -39.75,-0.75 z" /><path
         id="path110"
         style="fill:#daf0f7;fill-opacity:1;fill-rule:evenodd;stroke:none"
         d="m 37.125,571.125 c 0.602,19.883 3.102,39.633 7.5,59.25 -0.609,-0.695 -1.234,-1.445 -1.875,-2.25 -0.973,-4.703 -1.723,-9.453 -2.25,-14.25 -0.25,0.25 -0.5,0.5 -0.75,0.75 -0.836,-1.687 -0.961,-3.563 -0.375,-5.625 0.094,-1.941 -0.406,-3.691 -1.5,-5.25 0.391,-0.422 0.641,-0.922 0.75,-1.5 -1.328,-10.32 -1.828,-20.695 -1.5,-31.125 z" /><path
         id="path112"
         style="fill:#e4f5f9;fill-opacity:1;fill-rule:evenodd;stroke:none"
         d="m 364.125,784.875 c 9.008,1.043 17.508,3.293 25.5,6.75 -8.766,-1.566 -17.262,-3.816 -25.5,-6.75 z" /><path
         id="path114"
         style="fill:#e5f7fa;fill-opacity:1;fill-rule:evenodd;stroke:none"
         d="m 701.625,784.875 c -11.258,3.434 -22.754,6.187 -34.5,8.25 0.34,-0.719 0.84,-1.344 1.5,-1.875 5.617,-0.422 11.117,-1.426 16.5,-3 2.855,-0.801 5.602,-1.809 8.25,-3 2.738,-0.375 5.488,-0.504 8.25,-0.375 z" /><path
         id="path116"
         style="fill:#36789a;fill-opacity:1;fill-rule:evenodd;stroke:none"
         d="m 655.125,795.375 c -0.082,0.465 -0.332,0.84 -0.75,1.125 -3.629,-0.105 -6.629,1.148 -9,3.75 -2.742,-0.082 -5.492,-0.082 -8.25,0 -2.953,2.176 -6.328,3.301 -10.125,3.375 -1.121,-0.734 -2.246,-1.484 -3.375,-2.25 -3.465,0.668 -6.965,0.914 -10.5,0.75 13.922,-2.113 27.918,-4.363 42,-6.75 z" /><path
         id="path118"
         style="fill:#d8edf3;fill-opacity:1;fill-rule:evenodd;stroke:none"
         d="m 454.875,802.875 c 5.445,0.18 10.82,0.18 16.125,0 7.25,1.801 14.625,2.676 22.125,2.625 22.5,0.375 45,0.504 67.5,0.375 -35.344,2.559 -70.594,1.559 -105.75,-3 z" /><path
         id="path120"
         style="fill:#e1f3f8;fill-opacity:1;fill-rule:evenodd;stroke:none"
         d="m 620.625,853.125 c -4.371,1.621 -8.871,2.992 -13.5,4.125 -7.492,1.027 -14.992,1.898 -22.5,2.625 11.84,-2.617 23.84,-4.867 36,-6.75 z" /><path
         id="path122"
         style="fill:#e1f3f8;fill-opacity:1;fill-rule:evenodd;stroke:none"
         d="m 553.125,864.375 c -3.512,0.629 -7.012,1.508 -10.5,2.625 -10.715,1.117 -21.465,1.867 -32.25,2.25 0.25,0.246 0.5,0.504 0.75,0.75 -1,0.129 -2,0.246 -3,0.375 -4.98,-0.621 -9.98,-0.879 -15,-0.75 19.914,-1.449 39.914,-3.195 60,-5.25 z" /></g></g>
  </g>
</svg>